<svg width="125" height="106" viewBox="0 0 125 106" fill="none" xmlns="http://www.w3.org/2000/svg">
<g filter="url(#filter0_i)">
<path d="M0 10C0 4.47715 4.47715 0 10 0H115C120.523 0 125 4.47715 125 10V96C125 101.523 120.523 106 115 106H10C4.47715 106 0 101.523 0 96V10Z" fill="black"/>
</g>
<path d="M10 0.5H115C120.247 0.5 124.5 4.75329 124.5 10V96C124.5 101.247 120.247 105.5 115 105.5H10C4.75329 105.5 0.5 101.247 0.5 96V10C0.5 4.75329 4.75329 0.5 10 0.5Z" stroke="#333333"/>
<path d="M33.115 61.575H56.66C57.2833 61.575 57.8217 61.8017 58.275 62.255C58.7283 62.7083 58.955 63.2467 58.955 63.87V76.705C58.955 77.3283 58.7283 77.8667 58.275 78.32C57.8217 78.7733 57.2833 79 56.66 79H13.82C13.1967 79 12.6583 78.7733 12.205 78.32C11.7517 77.8667 11.525 77.3283 11.525 76.705V21.795C11.525 21.1717 11.7517 20.6333 12.205 20.18C12.6583 19.7267 13.1967 19.5 13.82 19.5H30.82C31.4433 19.5 31.9817 19.7267 32.435 20.18C32.8883 20.6333 33.115 21.1717 33.115 21.795V61.575ZM65.9622 19.5H115.772C116.396 19.5 116.934 19.7267 117.387 20.18C117.841 20.6333 118.067 21.1717 118.067 21.795V35.48C118.067 36.1033 117.841 36.6417 117.387 37.095C116.934 37.5483 116.396 37.775 115.772 37.775H101.662V76.705C101.662 77.3283 101.436 77.8667 100.982 78.32C100.529 78.7733 99.9905 79 99.3672 79H82.3672C81.7439 79 81.2055 78.7733 80.7522 78.32C80.2989 77.8667 80.0722 77.3283 80.0722 76.705V37.775H65.9622C65.3389 37.775 64.8005 37.5483 64.3472 37.095C63.8939 36.6417 63.6672 36.1033 63.6672 35.48V21.795C63.6672 21.1717 63.8939 20.6333 64.3472 20.18C64.8005 19.7267 65.3389 19.5 65.9622 19.5Z" fill="#FF0B0B"/>
<path d="M33.115 61.575H32.115V62.575H33.115V61.575ZM58.275 62.255L57.5679 62.9621L57.5679 62.9621L58.275 62.255ZM58.275 78.32L57.5679 77.6129L57.5679 77.6129L58.275 78.32ZM12.205 78.32L12.9121 77.6129L12.9121 77.6129L12.205 78.32ZM12.205 20.18L12.9121 20.8871L12.9121 20.8871L12.205 20.18ZM32.435 20.18L33.1421 19.4729L33.1421 19.4729L32.435 20.18ZM33.115 62.575H56.66V60.575H33.115V62.575ZM56.66 62.575C57.0098 62.575 57.2961 62.6903 57.5679 62.9621L58.9821 61.5479C58.3472 60.913 57.5569 60.575 56.66 60.575V62.575ZM57.5679 62.9621C57.8397 63.2339 57.955 63.5202 57.955 63.87H59.955C59.955 62.9731 59.617 62.1828 58.9821 61.5479L57.5679 62.9621ZM57.955 63.87V76.705H59.955V63.87H57.955ZM57.955 76.705C57.955 77.0548 57.8397 77.3411 57.5679 77.6129L58.9821 79.0271C59.617 78.3922 59.955 77.6019 59.955 76.705H57.955ZM57.5679 77.6129C57.2961 77.8847 57.0098 78 56.66 78V80C57.5569 80 58.3472 79.662 58.9821 79.0271L57.5679 77.6129ZM56.66 78H13.82V80H56.66V78ZM13.82 78C13.4702 78 13.1839 77.8847 12.9121 77.6129L11.4979 79.0271C12.1328 79.662 12.9231 80 13.82 80V78ZM12.9121 77.6129C12.6403 77.3411 12.525 77.0548 12.525 76.705H10.525C10.525 77.6019 10.863 78.3922 11.4979 79.0271L12.9121 77.6129ZM12.525 76.705V21.795H10.525V76.705H12.525ZM12.525 21.795C12.525 21.4452 12.6403 21.1589 12.9121 20.8871L11.4979 19.4729C10.863 20.1078 10.525 20.8981 10.525 21.795H12.525ZM12.9121 20.8871C13.1839 20.6153 13.4702 20.5 13.82 20.5V18.5C12.9231 18.5 12.1328 18.838 11.4979 19.4729L12.9121 20.8871ZM13.82 20.5H30.82V18.5H13.82V20.5ZM30.82 20.5C31.1698 20.5 31.4561 20.6153 31.7279 20.8871L33.1421 19.4729C32.5072 18.838 31.7169 18.5 30.82 18.5V20.5ZM31.7279 20.8871C31.9997 21.1589 32.115 21.4452 32.115 21.795H34.115C34.115 20.8981 33.777 20.1078 33.1421 19.4729L31.7279 20.8871ZM32.115 21.795V61.575H34.115V21.795H32.115ZM117.387 20.18L118.094 19.4729L118.094 19.4729L117.387 20.18ZM117.387 37.095L118.094 37.8021L118.094 37.8021L117.387 37.095ZM101.662 37.775V36.775H100.662V37.775H101.662ZM100.982 78.32L100.275 77.6129L100.275 77.6129L100.982 78.32ZM80.0722 37.775H81.0722V36.775H80.0722V37.775ZM65.9622 20.5H115.772V18.5H65.9622V20.5ZM115.772 20.5C116.122 20.5 116.408 20.6153 116.68 20.8871L118.094 19.4729C117.459 18.838 116.669 18.5 115.772 18.5V20.5ZM116.68 20.8871C116.952 21.1589 117.067 21.4452 117.067 21.795H119.067C119.067 20.8981 118.729 20.1078 118.094 19.4729L116.68 20.8871ZM117.067 21.795V35.48H119.067V21.795H117.067ZM117.067 35.48C117.067 35.8298 116.952 36.1161 116.68 36.3879L118.094 37.8021C118.729 37.1672 119.067 36.3769 119.067 35.48H117.067ZM116.68 36.3879C116.408 36.6597 116.122 36.775 115.772 36.775V38.775C116.669 38.775 117.459 38.437 118.094 37.8021L116.68 36.3879ZM115.772 36.775H101.662V38.775H115.772V36.775ZM100.662 37.775V76.705H102.662V37.775H100.662ZM100.662 76.705C100.662 77.0548 100.547 77.3411 100.275 77.6129L101.689 79.0271C102.324 78.3922 102.662 77.6019 102.662 76.705H100.662ZM100.275 77.6129C100.003 77.8847 99.717 78 99.3672 78V80C100.264 80 101.054 79.662 101.689 79.0271L100.275 77.6129ZM99.3672 78H82.3672V80H99.3672V78ZM82.3672 78C82.0174 78 81.7311 77.8847 81.4593 77.6129L80.0451 79.0271C80.68 79.662 81.4703 80 82.3672 80V78ZM81.4593 77.6129C81.1875 77.3411 81.0722 77.0548 81.0722 76.705H79.0722C79.0722 77.6019 79.4102 78.3922 80.0451 79.0271L81.4593 77.6129ZM81.0722 76.705V37.775H79.0722V76.705H81.0722ZM80.0722 36.775H65.9622V38.775H80.0722V36.775ZM65.9622 36.775C65.6124 36.775 65.3261 36.6597 65.0543 36.3879L63.6401 37.8021C64.275 38.437 65.0653 38.775 65.9622 38.775V36.775ZM65.0543 36.3879C64.7825 36.1161 64.6672 35.8298 64.6672 35.48H62.6672C62.6672 36.3769 63.0052 37.1672 63.6401 37.8021L65.0543 36.3879ZM64.6672 35.48V21.795H62.6672V35.48H64.6672ZM64.6672 21.795C64.6672 21.4452 64.7825 21.1589 65.0543 20.8871L63.6401 19.4729C63.0052 20.1078 62.6672 20.8981 62.6672 21.795H64.6672ZM65.0543 20.8871C65.3261 20.6153 65.6124 20.5 65.9622 20.5V18.5C65.0653 18.5 64.275 18.838 63.6401 19.4729L65.0543 20.8871Z" fill="#AF00EC" fill-opacity="0.1"/>
<defs>
<filter id="filter0_i" x="0" y="0" width="125" height="110" filterUnits="userSpaceOnUse" color-interpolation-filters="sRGB">
<feFlood flood-opacity="0" result="BackgroundImageFix"/>
<feBlend mode="normal" in="SourceGraphic" in2="BackgroundImageFix" result="shape"/>
<feColorMatrix in="SourceAlpha" type="matrix" values="0 0 0 0 0 0 0 0 0 0 0 0 0 0 0 0 0 0 127 0" result="hardAlpha"/>
<feOffset dy="4"/>
<feGaussianBlur stdDeviation="2"/>
<feComposite in2="hardAlpha" operator="arithmetic" k2="-1" k3="1"/>
<feColorMatrix type="matrix" values="0 0 0 0 0 0 0 0 0 0 0 0 0 0 0 0 0 0 0.25 0"/>
<feBlend mode="normal" in2="shape" result="effect1_innerShadow"/>
</filter>
</defs>
</svg>
